# xmcd
#
# Track frame offsets:
# 150
# 16947
# 29671
# 42516
# 58470
# 74226
# 89003
# 105047
# 119734
# 133900
#
# Disc length: 1954 seconds
#
#
# Revision: 0
# Processed by: cddbd v1.5.2PL0 Copyright (c) Steve Scherf et al.
# Submitted via: FreeRIP 2.945 
#
DISCID=9d07a00a
DTITLE=Bill Anderson - Nashville Mirrors
DYEAR=1900
DGENRE=Country
TTITLE0=Make Mine Nighttime
TTITLE1=Old Me And You
TTITLE2=More Than A Bedroom Thing
TTITLE3=Nashville Mirror
TTITLE4=We've Got Tonight
TTITLE5=I'm Use To The Rain
TTITLE6=Her Wedding Rings
TTITLE7=She Made Me Remember
TTITLE8=I Want That Feeling Again
TTITLE9=Love Me And I'll Be Your Best Friend
EXTD=
EXTT0=
EXTT1=
EXTT2=
EXTT3=
EXTT4=
EXTT5=
EXTT6=
EXTT7=
EXTT8=
EXTT9=
PLAYORDER=
